<?xml version="1.0" standalone="no"?>
<!DOCTYPE svg PUBLIC "-//W3C//DTD SVG 20010904//EN"
 "http://www.w3.org/TR/2001/REC-SVG-20010904/DTD/svg10.dtd">
<svg version="1.0" xmlns="http://www.w3.org/2000/svg"
 width="512.000000pt" height="512.000000pt" viewBox="0 0 512.000000 512.000000"
 preserveAspectRatio="xMidYMid meet">

<g transform="translate(0.000000,512.000000) scale(0.100000,-0.100000)"
fill="#000000" stroke="none">
<path d="M3936 4508 c-9 -12 -16 -33 -16 -45 0 -14 -32 -58 -87 -118 -74 -82
-90 -95 -110 -90 -14 3 -35 -1 -52 -11 -28 -16 -29 -16 -105 35 -66 45 -76 55
-76 81 0 63 -75 93 -118 47 -29 -31 -28 -68 3 -97 19 -18 31 -22 62 -17 34 5
46 0 113 -46 48 -33 80 -64 89 -84 18 -41 55 -58 91 -43 31 13 53 53 45 80 -4
14 18 45 80 114 80 88 88 94 110 84 18 -8 32 -8 53 1 27 11 35 9 105 -36 58
-36 78 -55 83 -76 14 -64 103 -74 129 -14 14 33 11 52 -13 80 -17 19 -72 23
-89 6 -17 -17 -172 79 -173 106 0 39 -28 65 -70 65 -29 0 -43 -6 -54 -22z"/>
<path d="M1693 4415 c-85 -19 -173 -68 -238 -132 l-55 -53 -5 27 c-10 46 -20
58 -53 61 -40 4 -92 -41 -125 -111 -24 -52 -60 -182 -73 -265 -6 -39 -11 -44
-68 -75 -75 -40 -137 -99 -170 -166 -33 -65 -33 -74 0 -25 15 21 34 44 43 51
25 20 90 15 128 -8 l35 -22 -6 -61 c-9 -84 14 -131 63 -131 49 0 67 30 105
185 35 140 44 170 53 170 3 0 33 -17 67 -39 97 -61 162 -91 244 -112 110 -28
259 -25 366 8 19 5 19 0 13 -147 -4 -84 -14 -199 -23 -257 -8 -58 -13 -107
-11 -110 3 -2 32 7 65 20 121 50 226 138 273 229 25 49 37 162 22 218 -8 32
-5 40 43 107 52 72 84 145 84 191 0 14 -14 38 -34 58 -30 30 -40 34 -85 34
-29 0 -68 -7 -88 -15 -19 -8 -37 -15 -39 -15 -2 0 -4 26 -4 58 0 109 -75 218
-190 277 -105 53 -237 73 -337 50z"/>
<path d="M3340 3890 l0 -190 80 0 80 0 0 190 0 190 -80 0 -80 0 0 -190z"/>
<path d="M3630 3820 l0 -120 75 0 75 0 0 120 0 120 -75 0 -75 0 0 -120z"/>
<path d="M3160 3620 c0 -20 7 -20 710 -20 703 0 710 0 710 20 0 20 -7 20 -710
20 -703 0 -710 0 -710 -20z"/>
<path d="M874 3520 c4 -162 59 -276 155 -327 24 -13 45 -22 47 -21 1 2 -2 26
-6 53 -5 28 -11 80 -15 116 l-6 66 -59 38 c-69 45 -98 81 -110 138 -7 32 -8
18 -6 -63z"/>
<path d="M1482 3507 c-22 -24 -31 -87 -12 -87 6 0 10 13 10 29 0 31 22 61 45
61 19 0 46 -29 57 -62 6 -15 14 -26 19 -23 11 8 -8 55 -33 83 -27 28 -59 28
-86 -1z"/>
<path d="M1688 3478 c-4 -57 8 -171 23 -215 17 -54 31 -25 14 31 -8 27 -15 89
-15 138 0 89 -16 123 -22 46z"/>
<path d="M1872 3503 c-18 -7 -42 -57 -42 -88 0 -38 17 -30 23 11 13 79 53 77
90 -4 15 -33 22 -42 25 -29 6 27 -17 75 -46 97 -26 21 -29 22 -50 13z"/>
<path d="M1470 3028 c0 -21 63 -76 96 -84 36 -9 42 3 8 16 -16 6 -46 28 -66
48 -26 25 -38 31 -38 20z"/>
<path d="M2536 2388 c-8 -13 -28 -63 -45 -112 -18 -49 -38 -103 -46 -120 -29
-61 -235 -651 -235 -672 0 -49 21 -53 251 -57 118 -2 8 -2 -243 0 -322 3 -463
1 -477 -7 -17 -8 -21 -20 -21 -58 0 -27 5 -53 12 -60 9 -9 223 -12 903 -12
489 0 896 4 903 8 18 12 26 75 13 100 -11 20 -20 22 -169 25 l-157 3 156 2
c134 2 158 4 171 20 18 19 328 882 328 911 0 11 -7 27 -16 35 -14 14 -88 16
-664 16 l-650 0 -14 -22z m617 -965 c-13 -2 -35 -2 -50 0 -16 2 -5 4 22 4 28
0 40 -2 28 -4z"/>
</g>
</svg>
