<!DOCTYPE svg PUBLIC "-//W3C//DTD SVG 1.1//EN" "http://www.w3.org/Graphics/SVG/1.1/DTD/svg11.dtd">
<!-- Uploaded to: SVG Repo, www.svgrepo.com, Transformed by: SVG Repo Mixer Tools -->
<svg fill="#27B43F" width="800px" height="800px" viewBox="-1 0 19 19" xmlns="http://www.w3.org/2000/svg" class="cf-icon-svg">
<g id="SVGRepo_bgCarrier" stroke-width="0"/>
<g id="SVGRepo_tracerCarrier" stroke-linecap="round" stroke-linejoin="round"/>
<g id="SVGRepo_iconCarrier">
<path d="M16.417 9.583A7.917 7.917 0 1 1 8.5 1.666a7.917 7.917 0 0 1 7.917 7.917zm-2.526 3.104a.318.318 0 0 0-.317-.316h-.372v-.384a.318.318 0 0 0-.316-.316h-.55V7.214h.866a.396.396 0 0 0 .158-.76L8.658 4.416a.396.396 0 0 0-.315 0L3.64 6.454a.396.396 0 0 0 .158.76h.865v4.457h-.549a.318.318 0 0 0-.316.316v.384h-.372a.318.318 0 0 0-.317.316v.383h10.782zM5.455 7.954h1.502v3.717H5.455zm5.839-1.532H5.706L8.5 5.212zM7.749 7.954h1.502v3.717H7.75zm2.294 0h1.502v3.717h-1.502z"/>
</g>
</svg>